<mxfile host="65bd71144e">
    <diagram id="jEPOmN6TtQN01yPJKIdC" name="Page-1">
        <mxGraphModel dx="775" dy="625" grid="0" gridSize="10" guides="1" tooltips="1" connect="1" arrows="1" fold="1" page="0" pageScale="1" pageWidth="850" pageHeight="1100" math="0" shadow="0">
            <root>
                <mxCell id="0"/>
                <mxCell id="1" parent="0"/>
                <mxCell id="32" style="html=1;endArrow=none;endFill=0;" parent="1" target="12" edge="1">
                    <mxGeometry relative="1" as="geometry">
                        <mxPoint x="10" y="490" as="sourcePoint"/>
                    </mxGeometry>
                </mxCell>
                <mxCell id="71" style="edgeStyle=none;html=1;endArrow=none;endFill=0;" edge="1" parent="1" target="67">
                    <mxGeometry relative="1" as="geometry">
                        <mxPoint x="10" y="491" as="sourcePoint"/>
                    </mxGeometry>
                </mxCell>
                <mxCell id="76" style="edgeStyle=none;html=1;endArrow=none;endFill=0;" edge="1" parent="1" target="73">
                    <mxGeometry relative="1" as="geometry">
                        <mxPoint x="11" y="491" as="sourcePoint"/>
                    </mxGeometry>
                </mxCell>
                <mxCell id="2" value="user" style="shape=umlActor;verticalLabelPosition=bottom;verticalAlign=top;html=1;" parent="1" vertex="1">
                    <mxGeometry x="-120" y="370" width="130" height="240" as="geometry"/>
                </mxCell>
                <mxCell id="11" value="System" style="shape=umlFrame;whiteSpace=wrap;html=1;width=206;height=36;" parent="1" vertex="1">
                    <mxGeometry x="170" y="-50" width="950" height="1170" as="geometry"/>
                </mxCell>
                <mxCell id="12" value="login" style="ellipse;whiteSpace=wrap;html=1;" parent="1" vertex="1">
                    <mxGeometry x="560" y="543" width="140" height="70" as="geometry"/>
                </mxCell>
                <mxCell id="13" value="sign up" style="ellipse;whiteSpace=wrap;html=1;" parent="1" vertex="1">
                    <mxGeometry x="539" y="285" width="140" height="70" as="geometry"/>
                </mxCell>
                <mxCell id="15" value="Create Room" style="ellipse;whiteSpace=wrap;html=1;" parent="1" vertex="1">
                    <mxGeometry x="436" y="189" width="140" height="70" as="geometry"/>
                </mxCell>
                <mxCell id="16" value="Join Room" style="ellipse;whiteSpace=wrap;html=1;" parent="1" vertex="1">
                    <mxGeometry x="637" y="804" width="140" height="70" as="geometry"/>
                </mxCell>
                <mxCell id="17" value="Sign out" style="ellipse;whiteSpace=wrap;html=1;" parent="1" vertex="1">
                    <mxGeometry x="706" y="712" width="140" height="70" as="geometry"/>
                </mxCell>
                <mxCell id="19" value="Play Game" style="ellipse;whiteSpace=wrap;html=1;" parent="1" vertex="1">
                    <mxGeometry x="560" y="880" width="140" height="70" as="geometry"/>
                </mxCell>
                <mxCell id="20" value="Auction" style="ellipse;whiteSpace=wrap;html=1;" parent="1" vertex="1">
                    <mxGeometry x="250" y="930" width="140" height="70" as="geometry"/>
                </mxCell>
                <mxCell id="21" value="Move" style="ellipse;whiteSpace=wrap;html=1;" parent="1" vertex="1">
                    <mxGeometry x="463" y="996" width="140" height="70" as="geometry"/>
                </mxCell>
                <mxCell id="22" value="Mine" style="ellipse;whiteSpace=wrap;html=1;" parent="1" vertex="1">
                    <mxGeometry x="700" y="1002" width="140" height="70" as="geometry"/>
                </mxCell>
                <mxCell id="23" value="Attack" style="ellipse;whiteSpace=wrap;html=1;" parent="1" vertex="1">
                    <mxGeometry x="892" y="962" width="140" height="70" as="geometry"/>
                </mxCell>
                <mxCell id="24" value="Extends" style="endArrow=block;endSize=16;endFill=0;html=1;exitX=0.5;exitY=1;exitDx=0;exitDy=0;entryX=0.5;entryY=0;entryDx=0;entryDy=0;dashed=1;" parent="1" source="19" target="20" edge="1">
                    <mxGeometry width="160" relative="1" as="geometry">
                        <mxPoint x="450" y="780" as="sourcePoint"/>
                        <mxPoint x="610" y="780" as="targetPoint"/>
                    </mxGeometry>
                </mxCell>
                <mxCell id="25" value="Extends" style="endArrow=block;endSize=16;endFill=0;html=1;exitX=0.5;exitY=1;exitDx=0;exitDy=0;entryX=0.5;entryY=0;entryDx=0;entryDy=0;dashed=1;" parent="1" source="19" target="21" edge="1">
                    <mxGeometry width="160" relative="1" as="geometry">
                        <mxPoint x="400" y="740" as="sourcePoint"/>
                        <mxPoint x="329.9999999999998" y="940" as="targetPoint"/>
                    </mxGeometry>
                </mxCell>
                <mxCell id="26" value="Extends" style="endArrow=block;endSize=16;endFill=0;html=1;dashed=1;exitX=0.5;exitY=1;exitDx=0;exitDy=0;" parent="1" source="19" target="23" edge="1">
                    <mxGeometry width="160" relative="1" as="geometry">
                        <mxPoint x="280" y="690" as="sourcePoint"/>
                        <mxPoint x="530" y="930" as="targetPoint"/>
                    </mxGeometry>
                </mxCell>
                <mxCell id="27" value="Extends" style="endArrow=block;endSize=16;endFill=0;html=1;exitX=0.5;exitY=1;exitDx=0;exitDy=0;dashed=1;" parent="1" source="19" target="22" edge="1">
                    <mxGeometry width="160" relative="1" as="geometry">
                        <mxPoint x="410" y="750" as="sourcePoint"/>
                        <mxPoint x="540" y="940" as="targetPoint"/>
                    </mxGeometry>
                </mxCell>
                <mxCell id="33" style="html=1;endArrow=none;endFill=0;entryX=0;entryY=0.5;entryDx=0;entryDy=0;" parent="1" target="19" edge="1">
                    <mxGeometry relative="1" as="geometry">
                        <mxPoint x="10" y="491" as="sourcePoint"/>
                        <mxPoint x="219.999999999995" y="500" as="targetPoint"/>
                    </mxGeometry>
                </mxCell>
                <mxCell id="35" value="Include" style="endArrow=open;endSize=12;dashed=1;html=1;exitX=0.5;exitY=0;exitDx=0;exitDy=0;entryX=0.5;entryY=1;entryDx=0;entryDy=0;" parent="1" source="19" target="12" edge="1">
                    <mxGeometry width="160" relative="1" as="geometry">
                        <mxPoint x="470" y="560" as="sourcePoint"/>
                        <mxPoint x="630" y="560" as="targetPoint"/>
                    </mxGeometry>
                </mxCell>
                <mxCell id="36" value="Include" style="endArrow=open;endSize=12;dashed=1;html=1;exitX=0.38;exitY=-0.023;exitDx=0;exitDy=0;exitPerimeter=0;" parent="1" source="17" target="12" edge="1">
                    <mxGeometry width="160" relative="1" as="geometry">
                        <mxPoint x="490.0000000000002" y="610" as="sourcePoint"/>
                        <mxPoint x="380.0000000000002" y="475" as="targetPoint"/>
                    </mxGeometry>
                </mxCell>
                <mxCell id="37" value="Include" style="endArrow=open;endSize=12;dashed=1;html=1;" parent="1" source="12" target="13" edge="1">
                    <mxGeometry width="160" relative="1" as="geometry">
                        <mxPoint x="550.0000000000002" y="575" as="sourcePoint"/>
                        <mxPoint x="440.0000000000002" y="440" as="targetPoint"/>
                    </mxGeometry>
                </mxCell>
                <mxCell id="38" value="Include" style="endArrow=open;endSize=12;dashed=1;html=1;" parent="1" source="16" target="12" edge="1">
                    <mxGeometry width="160" relative="1" as="geometry">
                        <mxPoint x="700.0000000000002" y="525" as="sourcePoint"/>
                        <mxPoint x="590.0000000000002" y="390" as="targetPoint"/>
                    </mxGeometry>
                </mxCell>
                <mxCell id="39" value="Include" style="endArrow=open;endSize=12;dashed=1;html=1;exitX=0.5;exitY=1;exitDx=0;exitDy=0;" parent="1" source="15" target="12" edge="1">
                    <mxGeometry width="160" relative="1" as="geometry">
                        <mxPoint x="340.0000000000002" y="180" as="sourcePoint"/>
                        <mxPoint x="450.0000000000002" y="315" as="targetPoint"/>
                    </mxGeometry>
                </mxCell>
                <mxCell id="40" style="html=1;endArrow=none;endFill=0;entryX=0;entryY=1;entryDx=0;entryDy=0;" parent="1" target="15" edge="1">
                    <mxGeometry relative="1" as="geometry">
                        <mxPoint x="10" y="490" as="sourcePoint"/>
                        <mxPoint x="240.0812932590593" y="319.5363134828349" as="targetPoint"/>
                    </mxGeometry>
                </mxCell>
                <mxCell id="41" style="html=1;endArrow=none;endFill=0;entryX=0;entryY=0.5;entryDx=0;entryDy=0;" parent="1" target="17" edge="1">
                    <mxGeometry relative="1" as="geometry">
                        <mxPoint x="10" y="490" as="sourcePoint"/>
                        <mxPoint x="219.99999999999955" y="665" as="targetPoint"/>
                    </mxGeometry>
                </mxCell>
                <mxCell id="45" value="setting user" style="ellipse;whiteSpace=wrap;html=1;" parent="1" vertex="1">
                    <mxGeometry x="323" y="106" width="140" height="70" as="geometry"/>
                </mxCell>
                <mxCell id="46" style="html=1;endArrow=none;endFill=0;entryX=0;entryY=0.5;entryDx=0;entryDy=0;" parent="1" target="45" edge="1">
                    <mxGeometry relative="1" as="geometry">
                        <mxPoint x="10" y="490" as="sourcePoint"/>
                        <mxPoint x="260.0812932590593" y="179.5363134828351" as="targetPoint"/>
                    </mxGeometry>
                </mxCell>
                <mxCell id="47" value="Include" style="endArrow=open;endSize=12;dashed=1;html=1;entryX=0;entryY=0;entryDx=0;entryDy=0;" parent="1" source="45" target="12" edge="1">
                    <mxGeometry width="160" relative="1" as="geometry">
                        <mxPoint x="309.9999999999998" y="190" as="sourcePoint"/>
                        <mxPoint x="660.502525316941" y="340.25126265847075" as="targetPoint"/>
                    </mxGeometry>
                </mxCell>
                <mxCell id="XmDS7GJ3tjX_6OGCyPe7-47" style="html=1;endArrow=none;endFill=0;entryX=0;entryY=0.5;entryDx=0;entryDy=0;" parent="1" target="13" edge="1">
                    <mxGeometry relative="1" as="geometry">
                        <mxPoint x="10" y="490" as="sourcePoint"/>
                        <mxPoint x="210" y="290" as="targetPoint"/>
                    </mxGeometry>
                </mxCell>
                <mxCell id="51" style="edgeStyle=none;html=1;entryX=1;entryY=0.5;entryDx=0;entryDy=0;endArrow=none;endFill=0;" edge="1" parent="1" target="13">
                    <mxGeometry relative="1" as="geometry">
                        <mxPoint x="1261" y="518" as="sourcePoint"/>
                    </mxGeometry>
                </mxCell>
                <mxCell id="52" style="edgeStyle=none;html=1;endArrow=none;endFill=0;" edge="1" parent="1" target="15">
                    <mxGeometry relative="1" as="geometry">
                        <mxPoint x="1259" y="518" as="sourcePoint"/>
                    </mxGeometry>
                </mxCell>
                <mxCell id="53" style="edgeStyle=none;html=1;entryX=1;entryY=0.5;entryDx=0;entryDy=0;endArrow=none;endFill=0;" edge="1" parent="1" target="45">
                    <mxGeometry relative="1" as="geometry">
                        <mxPoint x="1258" y="518" as="sourcePoint"/>
                    </mxGeometry>
                </mxCell>
                <mxCell id="54" style="edgeStyle=none;html=1;endArrow=none;endFill=0;" edge="1" parent="1" source="48" target="12">
                    <mxGeometry relative="1" as="geometry"/>
                </mxCell>
                <mxCell id="55" style="edgeStyle=none;html=1;endArrow=none;endFill=0;" edge="1" parent="1" target="17">
                    <mxGeometry relative="1" as="geometry">
                        <mxPoint x="1260" y="519" as="sourcePoint"/>
                    </mxGeometry>
                </mxCell>
                <mxCell id="56" style="edgeStyle=none;html=1;entryX=1;entryY=0.5;entryDx=0;entryDy=0;endArrow=none;endFill=0;" edge="1" parent="1" target="16">
                    <mxGeometry relative="1" as="geometry">
                        <mxPoint x="1261" y="520" as="sourcePoint"/>
                    </mxGeometry>
                </mxCell>
                <mxCell id="57" style="edgeStyle=none;html=1;entryX=0.938;entryY=0.732;entryDx=0;entryDy=0;entryPerimeter=0;endArrow=none;endFill=0;" edge="1" parent="1" target="19">
                    <mxGeometry relative="1" as="geometry">
                        <mxPoint x="1262" y="519" as="sourcePoint"/>
                    </mxGeometry>
                </mxCell>
                <mxCell id="65" style="edgeStyle=none;html=1;endArrow=none;endFill=0;" edge="1" parent="1" target="64">
                    <mxGeometry relative="1" as="geometry">
                        <mxPoint x="1260" y="518" as="sourcePoint"/>
                    </mxGeometry>
                </mxCell>
                <mxCell id="69" style="edgeStyle=none;html=1;entryX=1;entryY=0.5;entryDx=0;entryDy=0;endArrow=none;endFill=0;" edge="1" parent="1" target="68">
                    <mxGeometry relative="1" as="geometry">
                        <mxPoint x="1261" y="521" as="sourcePoint"/>
                    </mxGeometry>
                </mxCell>
                <mxCell id="75" style="edgeStyle=none;html=1;endArrow=none;endFill=0;" edge="1" parent="1" target="73">
                    <mxGeometry relative="1" as="geometry">
                        <mxPoint x="1259" y="521" as="sourcePoint"/>
                    </mxGeometry>
                </mxCell>
                <mxCell id="48" value="&lt;br&gt;admin" style="shape=umlActor;verticalLabelPosition=bottom;verticalAlign=top;html=1;" vertex="1" parent="1">
                    <mxGeometry x="1262" y="393" width="130" height="240" as="geometry"/>
                </mxCell>
                <mxCell id="49" style="html=1;endArrow=none;endFill=0;entryX=0;entryY=0.5;entryDx=0;entryDy=0;" edge="1" parent="1" target="16">
                    <mxGeometry relative="1" as="geometry">
                        <mxPoint x="12" y="490" as="sourcePoint"/>
                        <mxPoint x="485" y="297" as="targetPoint"/>
                    </mxGeometry>
                </mxCell>
                <mxCell id="61" value="deploy" style="ellipse;whiteSpace=wrap;html=1;" vertex="1" parent="1">
                    <mxGeometry x="905" y="870" width="140" height="70" as="geometry"/>
                </mxCell>
                <mxCell id="62" value="Extends" style="endArrow=block;endSize=16;endFill=0;html=1;dashed=1;exitX=1;exitY=0.5;exitDx=0;exitDy=0;" edge="1" parent="1" target="61" source="19">
                    <mxGeometry width="160" relative="1" as="geometry">
                        <mxPoint x="643" y="858" as="sourcePoint"/>
                        <mxPoint x="543" y="838" as="targetPoint"/>
                    </mxGeometry>
                </mxCell>
                <mxCell id="64" value="ban user" style="ellipse;whiteSpace=wrap;html=1;" vertex="1" parent="1">
                    <mxGeometry x="960" y="312" width="140" height="70" as="geometry"/>
                </mxCell>
                <mxCell id="66" value="Include" style="endArrow=open;endSize=12;dashed=1;html=1;exitX=0.5;exitY=1;exitDx=0;exitDy=0;entryX=1;entryY=0;entryDx=0;entryDy=0;" edge="1" parent="1" source="64" target="12">
                    <mxGeometry width="160" relative="1" as="geometry">
                        <mxPoint x="769.2000000000003" y="720.3899999999999" as="sourcePoint"/>
                        <mxPoint x="670.7771758454642" y="619.4355111576665" as="targetPoint"/>
                    </mxGeometry>
                </mxCell>
                <mxCell id="67" value="show own&amp;nbsp; match history" style="ellipse;whiteSpace=wrap;html=1;" vertex="1" parent="1">
                    <mxGeometry x="193" y="49" width="140" height="70" as="geometry"/>
                </mxCell>
                <mxCell id="68" value="show&amp;nbsp; all&amp;nbsp; match history" style="ellipse;whiteSpace=wrap;html=1;" vertex="1" parent="1">
                    <mxGeometry x="960" y="219" width="140" height="70" as="geometry"/>
                </mxCell>
                <mxCell id="70" value="Include" style="endArrow=open;endSize=12;dashed=1;html=1;entryX=1;entryY=0;entryDx=0;entryDy=0;" edge="1" parent="1" source="68" target="12">
                    <mxGeometry width="160" relative="1" as="geometry">
                        <mxPoint x="1020" y="262.9999999999998" as="sourcePoint"/>
                        <mxPoint x="689.7701818048381" y="563.3883716349703" as="targetPoint"/>
                    </mxGeometry>
                </mxCell>
                <mxCell id="72" value="Include" style="endArrow=open;endSize=12;dashed=1;html=1;entryX=0.062;entryY=0.243;entryDx=0;entryDy=0;entryPerimeter=0;" edge="1" parent="1" source="67" target="12">
                    <mxGeometry width="160" relative="1" as="geometry">
                        <mxPoint x="473.0949689837139" y="228.4735830936786" as="sourcePoint"/>
                        <mxPoint x="590.502525316942" y="563.251262658471" as="targetPoint"/>
                    </mxGeometry>
                </mxCell>
                <mxCell id="73" value="chat&amp;nbsp;" style="ellipse;whiteSpace=wrap;html=1;" vertex="1" parent="1">
                    <mxGeometry x="646" y="386" width="140" height="70" as="geometry"/>
                </mxCell>
                <mxCell id="74" value="Include" style="endArrow=open;endSize=12;dashed=1;html=1;exitX=0.5;exitY=1;exitDx=0;exitDy=0;" edge="1" parent="1" source="73" target="12">
                    <mxGeometry width="160" relative="1" as="geometry">
                        <mxPoint x="621.8052313354588" y="364.9718839820516" as="sourcePoint"/>
                        <mxPoint x="637.1849416381833" y="553.0283134281976" as="targetPoint"/>
                    </mxGeometry>
                </mxCell>
            </root>
        </mxGraphModel>
    </diagram>
</mxfile>